<?xml version="1.0" standalone="no"?>
<!DOCTYPE svg PUBLIC "-//W3C//DTD SVG 20010904//EN"
 "http://www.w3.org/TR/2001/REC-SVG-20010904/DTD/svg10.dtd">
<svg version="1.0" xmlns="http://www.w3.org/2000/svg"
 width="808.000000pt" height="1280.000000pt" viewBox="0 0 808.000000 1280.000000"
 preserveAspectRatio="xMidYMid meet">
<g transform="translate(0.000000,1280.000000) scale(0.100000,-0.100000)"
fill="#e91e63" stroke="none">
<path d="M3096 12757 c-58 -59 -79 -127 -79 -252 2 -263 139 -669 411 -1220
100 -202 309 -595 317 -595 1 0 1 21 -1 48 -25 372 -30 632 -14 877 36 553
157 843 365 873 38 6 45 9 34 18 -45 35 -321 204 -334 204 -53 0 -143 -91
-175 -178 -48 -127 -55 -190 -55 -482 0 -168 5 -318 13 -385 33 -268 82 -565
136 -819 14 -66 24 -121 22 -123 -6 -6 -153 379 -214 562 -206 611 -261 1050
-157 1255 27 53 90 118 122 126 13 4 23 9 23 13 0 5 -259 92 -352 118 -10 3
-33 -12 -62 -40z"/>
<path d="M2373 12589 c-79 -86 -69 -249 28 -441 156 -309 565 -792 1083 -1277
113 -107 204 -196 202 -199 -9 -8 -566 274 -761 386 -645 370 -988 676 -1033
922 -10 51 -5 111 13 152 7 19 25 23 -218 -52 -117 -36 -127 -45 -141 -120 -8
-44 16 -127 51 -184 153 -243 674 -554 1478 -883 225 -92 607 -235 613 -229 2
3 17 -3 31 -13 22 -15 36 -17 96 -11 155 17 374 22 503 11 348 -30 520 -131
522 -306 1 -46 7 -31 81 178 44 126 78 235 75 242 -9 25 -110 74 -185 91 -211
47 -621 -31 -996 -191 -22 -9 -35 -12 -30 -6 14 14 246 119 386 174 305 121
577 166 729 121 64 -19 135 -82 154 -137 13 -38 13 -37 19 60 4 54 7 160 7
236 l0 138 -47 21 c-67 29 -216 22 -328 -17 -169 -58 -398 -185 -615 -343
-119 -86 -309 -238 -328 -261 -11 -14 -22 -6 -84 59 -169 178 -482 572 -637
804 -277 413 -406 728 -372 911 12 62 29 99 67 144 l26 31 -65 0 c-35 0 -117
3 -183 6 -116 6 -119 6 -141 -17z"/>
<path d="M4369 12413 c-48 -8 -132 -67 -182 -128 -171 -213 -321 -747 -407
-1453 -13 -102 -9 -128 9 -58 24 96 85 287 135 426 178 486 371 797 549 881
66 31 133 38 183 19 15 -6 28 -9 30 -7 5 5 -269 322 -280 323 -6 1 -23 -1 -37
-3z"/>
<path d="M4720 11881 c-203 -79 -467 -378 -747 -846 -96 -161 -187 -325 -180
-325 2 0 44 48 93 108 119 143 418 443 524 524 195 150 359 225 473 215 60 -5
137 -42 156 -75 6 -9 11 -13 11 -8 0 7 -101 290 -147 414 -8 19 -129 14 -183
-7z"/>
<path d="M1083 10989 c-128 -111 -134 -121 -113 -199 23 -87 140 -173 296
-219 103 -31 278 -58 454 -72 285 -22 849 -2 1325 46 220 23 628 75 635 82 3
3 -24 2 -60 -1 -243 -25 -1039 -23 -1324 3 -663 62 -1017 201 -1077 423 -5 21
-12 38 -14 38 -2 0 -57 -46 -122 -101z"/>
<path d="M3530 10524 c-500 -292 -1066 -559 -1485 -699 -460 -155 -759 -163
-900 -25 l-40 39 -73 -139 -73 -140 23 -42 c78 -140 264 -163 580 -72 423 121
1121 494 1904 1014 273 182 284 192 64 64z"/>
<path d="M3551 10132 c-96 -257 -182 -482 -193 -501 -24 -44 -349 -905 -358
-951 -9 -47 -459 -1241 -475 -1260 -14 -18 -346 -902 -350 -933 -1 -12 -84
-240 -185 -507 -100 -267 -207 -550 -237 -630 -30 -80 -60 -154 -68 -166 -18
-28 -376 -980 -385 -1024 -4 -19 -123 -343 -265 -720 -142 -377 -273 -728
-293 -780 -19 -52 -39 -97 -43 -100 -10 -7 -389 -1014 -389 -1034 0 -8 -67
-194 -150 -413 -82 -219 -150 -404 -152 -412 -4 -20 174 -92 517 -208 625
-211 1277 -355 1935 -428 432 -48 636 -59 1125 -59 444 0 587 6 970 39 973 86
2016 321 2925 660 235 88 580 231 597 249 2 2 -17 47 -42 100 -25 54 -45 104
-45 113 0 8 -59 147 -131 307 -72 160 -206 455 -296 656 -91 201 -171 372
-178 380 -19 21 -545 1185 -560 1240 -11 41 -107 256 -681 1528 -90 199 -173
375 -183 390 -25 35 -552 1206 -556 1235 -3 28 -592 1334 -616 1367 -10 14
-168 356 -350 760 -182 404 -414 919 -515 1143 -101 224 -184 412 -184 418 0
39 -37 -50 -189 -459z"/>
</g>
</svg>
