<!-- Generator: Adobe Illustrator 20.1.0, SVG Export Plug-In  -->
<svg version="1.1"
	 xmlns="http://www.w3.org/2000/svg" xmlns:xlink="http://www.w3.org/1999/xlink" xmlns:a="http://ns.adobe.com/AdobeSVGViewerExtensions/3.0/"
	 x="0px" y="0px" width="159.779px" height="121.368px" viewBox="0 0 159.779 121.368"
	 style="enable-background:new 0 0 159.779 121.368;" xml:space="preserve">
<style type="text/css">
	.st0{fill:#FFD33C;}
	.st1{fill:#AE712A;}
	.st2{fill:#B2D235;}
	.st3{fill:#F52526;}
	.st4{fill:#50B4D4;}
	.st5{fill:#CF62A5;}
	.st6{fill:#FFFFFF;}
	.st7{fill:#FFECA4;}
</style>
<defs>
</defs>
<g>
	<g>
		<path class="st0" d="M0,76.227c46.241-3.26,102.986-17.878,158.012-30.637C178.816,121.917,9.227,154.798,0,76.227z"/>
		<path class="st1" d="M19.803,82.592l122.251-25.444C142.054,57.148,81.739,100.66,19.803,82.592z"/>
		<path class="st0" d="M54.636,87.347c-0.524-20.777,0.204-45.338,0.121-67.984C54.687-0.037,78.977-7.795,86.956,9.937
			l28.229,62.738C115.184,72.675,88.059,89.536,54.636,87.347z"/>
		<path class="st2" d="M54.452,66.15c-0.023,7.332,0.015,14.464,0.184,21.197c2.61,0.17,5.176,0.213,7.699,0.169
			c0.473-7.622,0.784-15.239,1.253-22.721C60.561,65.305,57.514,65.757,54.452,66.15z"/>
		<path class="st3" d="M63.588,64.795c-0.469,7.482-0.78,15.099-1.253,22.721c2.904-0.051,5.741-0.236,8.502-0.524
			c0.134-7.886,0.623-15.851,0.168-23.608C68.545,63.895,66.077,64.376,63.588,64.795z"/>
		<path class="st4" d="M78.829,61.556c-2.588,0.666-5.195,1.281-7.824,1.828c0.455,7.757-0.034,15.722-0.168,23.608
			c4.674-0.486,9.118-1.275,13.265-2.237C82.768,76.907,81.528,68.947,78.829,61.556z"/>
		<path class="st5" d="M78.829,61.556c2.7,7.391,3.939,15.351,5.273,23.2c3.925-0.91,7.578-1.977,10.904-3.092
			c-1.865-7.846-4.137-15.48-7.512-22.625C84.636,59.961,81.748,60.804,78.829,61.556z"/>
		<path class="st3" d="M93.204,57.033c1.774,7.851,4.644,15.245,7.654,22.495c2.85-1.122,5.335-2.224,7.406-3.207
			c-2.555-7.548-5.76-14.805-9.343-21.589C97.032,55.545,95.127,56.314,93.204,57.033z"/>
		<path class="st4" d="M105.68,51.552c-2.221,1.146-4.478,2.196-6.759,3.179c3.582,6.785,6.788,14.041,9.343,21.589
			c4.414-2.097,6.92-3.646,6.92-3.646L105.68,51.552z"/>
		<path class="st2" d="M87.494,59.038c3.375,7.145,5.646,14.78,7.512,22.625c2.09-0.702,4.038-1.421,5.852-2.135
			c-3.01-7.25-5.88-14.644-7.654-22.495C91.314,57.739,89.415,58.416,87.494,59.038z"/>
		<path class="st6" d="M157.302,57.806c-8.801-0.148-10.224,6.773-11.735,13.944c-1.398,6.637-5.477,4.686-10.588,2.471
			c-4.057-1.757-9.776-2.348-11.607,2.956c-1.866,5.405,0.934,10.625,1.187,16.063c0.293,6.319-4.189,3.622-6.539,1.073
			c-1.84-1.996-3.409-4.244-5.103-6.361c-2.923-3.654-9.186-7.512-12.04-1.739c-2.968,6.004-1.264,13.466-4.757,19.329
			c-5.358,8.994-16.067-10.884-20.792-12.593c-9.062-3.277-11.168,6.283-12.079,12.851c-0.985,7.108-8.418-2.104-10.226-4.235
			c-2.817-3.317-6.276-8.067-10.627-9.496c-5.119-1.681-8.229,1.595-8.324,6.586c-0.039,2.07,0.692,9.949-3.46,7.677
			c-2.141-1.172-3.561-4.001-4.81-5.979c-4.764-7.548-10.735-14.957-18.187-5.452c-1.492,1.902,1.676,3.906,3.154,2.021
			c6.449-8.226,11.281,5.135,14.913,9.834c3.394,4.393,11.005,5.33,12.039-1.729c0.359-2.454,0.069-4.89,0.115-7.357
			c0.111-5.88,7.021,0.534,8.022,1.512c3.516,3.433,6.146,8.01,10.09,10.983c7.348,5.537,10.583-0.328,11.414-7.055
			c0.315-2.549,0.754-5.271,3.181-6.637c3.182-1.79,6.115,1.886,7.875,3.978c2.853,3.395,5.486,8.45,9.921,10.058
			c6.689,2.426,11.1-1.354,12.907-7.664c0.921-3.218,1.229-6.619,1.722-9.919c0.434-2.899,0.658-7.42,4.37-5.087
			c3.829,2.406,11.008,17.411,17.173,13.145c4.675-3.235,3.956-8.981,2.883-13.866c-0.326-1.488-0.644-2.962-0.894-4.465
			c-0.909-5.49,5.201-5.824,8.848-4.14c2.291,1.058,5.226,2.375,7.85,1.78c9.716-2.203,2.919-18.931,13.904-18.747
			C159.515,61.588,159.716,57.847,157.302,57.806z"/>
	</g>
	<path class="st7" d="M62.444,7.939c-3.769,14.811-3.591,29.719-2.853,44.643C59.591,52.582,52.217,6.424,62.444,7.939z"/>
</g>
</svg>